<?xml version="1.0" encoding="utf-8"?>
<!-- Generator: Adobe Illustrator 21.0.0, SVG Export Plug-In . SVG Version: 6.00 Build 0)  -->
<svg version="1.1" id="Layer_1" xmlns="http://www.w3.org/2000/svg" xmlns:xlink="http://www.w3.org/1999/xlink" x="0px" y="0px"
	 viewBox="0 0 50 50" style="enable-background:new 0 0 50 50;" xml:space="preserve">
<style type="text/css">
	.st0{fill:#FFFFFF;}
</style>
<path class="st0" d="M25,3C12.9,3,3,12.9,3,25s9.9,22,22,22s22-9.9,22-22S37.1,3,25,3z M25,5c11.1,0,20,8.9,20,20s-8.9,20-20,20
	S5,36.1,5,25S13.9,5,25,5z M16.4,15.5c0,0-0.1,0-0.1,0c-0.5,0.1-0.9,0.6-0.8,1.2c0,0.2,0.1,0.4,0.3,0.6l7.8,7.8l-7.8,7.8
	c-0.4,0.4-0.4,1,0,1.4c0.4,0.4,1,0.4,1.4,0l7.8-7.8l7.8,7.8c0.4,0.4,1,0.4,1.4,0s0.4-1,0-1.4L26.4,25l7.8-7.8c0.4-0.4,0.4-1,0.1-1.4
	c-0.2-0.2-0.6-0.4-0.9-0.3c-0.2,0-0.4,0.1-0.6,0.3L25,23.6l-7.8-7.8C17,15.6,16.7,15.4,16.4,15.5z"/>
</svg>
