<?xml version="1.0" encoding="utf-8"?>
<!-- Generator: Adobe Illustrator 21.0.0, SVG Export Plug-In . SVG Version: 6.00 Build 0)  -->
<svg version="1.1" id="Layer_1" xmlns="http://www.w3.org/2000/svg" xmlns:xlink="http://www.w3.org/1999/xlink" x="0px" y="0px"
	 viewBox="0 0 50 50" style="enable-background:new 0 0 50 50;" xml:space="preserve">
<style type="text/css">
	.st0{fill:#F26B43;}
</style>
<path class="st0" d="M33.4,0c-0.6,0.1-1,0.5-0.9,1.1s0.5,1,1.1,0.9h13L25.7,22.9c-0.4,0.3-0.5,1-0.2,1.4s1,0.5,1.4,0.2
	c0.1,0,0.1-0.1,0.2-0.2L48,3.4v13c0,0.6,0.4,1,1,1c0.6,0,1-0.4,1-1c0,0,0,0,0,0V1V0h-1H33.6C33.6,0,33.5,0,33.4,0
	C33.5,0,33.4,0,33.4,0z M2,10c-0.5,0-1.1,0.2-1.4,0.6S0,11.5,0,12v36c0,0.5,0.2,1.1,0.6,1.4S1.5,50,2,50h36c0.5,0,1.1-0.2,1.4-0.6
	S40,48.5,40,48V18c0-0.6-0.4-1-1-1c-0.6,0-1,0.4-1,1c0,0,0,0,0,0v30H2V12h30c0.6,0,1-0.4,1-1c0-0.6-0.4-1-1-1c0,0,0,0,0,0H2z"/>
</svg>
