<?xml version="1.0" encoding="utf-8"?>
<!-- Generator: Adobe Illustrator 21.0.0, SVG Export Plug-In . SVG Version: 6.00 Build 0)  -->
<svg version="1.1" id="Layer_1" xmlns="http://www.w3.org/2000/svg" xmlns:xlink="http://www.w3.org/1999/xlink" x="0px" y="0px"
	 viewBox="0 0 50 50" style="enable-background:new 0 0 50 50;" xml:space="preserve">
<style type="text/css">
	.st0{fill:#F26B43;}
</style>
<path class="st0" d="M20,8C13.5,8,8.4,13.1,8.1,19.5C3.4,20.8,0,25,0,30c0,6,5,11,11,11h30c4.9,0,9-4.1,9-9c0-3.9-2.6-7.2-6.1-8.4
	C43.7,17.8,38.9,13,33,13c-1,0-2,0.3-3,0.5C27.9,10.3,24.2,8,20,8z M20,10c3.7,0,7,2.1,8.7,5.1l0.4,0.7l0.8-0.3c1-0.4,2-0.5,3.1-0.5
	c5,0,9,4,9,9v0.3v0.8l0.8,0.2C45.7,26,48,28.8,48,32c0,3.9-3.1,7-7,7H11c-5,0-9-4-9-9c0-4.3,3.1-8,7.2-8.8L10,21v-0.8V20
	C10,14.4,14.4,10,20,10z M25,18.6l-0.7,0.7l-6,6l1.4,1.4l4.3-4.3V34h2V22.4l4.3,4.3l1.4-1.4l-6-6L25,18.6z"/>
</svg>
