<?xml version="1.0" encoding="utf-8"?>
<!-- Generator: Adobe Illustrator 21.0.0, SVG Export Plug-In . SVG Version: 6.00 Build 0)  -->
<svg version="1.1" id="Layer_1" xmlns="http://www.w3.org/2000/svg" xmlns:xlink="http://www.w3.org/1999/xlink" x="0px" y="0px"
	 viewBox="0 0 50 50" style="enable-background:new 0 0 50 50;" xml:space="preserve">
<style type="text/css">
	.st0{fill:#F26B43;}
</style>
<path class="st0" d="M44,23.5C43.8,17.7,38.9,13,33,13c-1,0-2,0.1-3,0.4C27.8,10.1,24,8,20,8C13.6,8,8.3,13.1,8,19.4
	C3.3,20.7,0,25,0,30c0,6.1,4.9,11,11,11h30c5,0,9-4,9-9C50,28.2,47.5,24.7,44,23.5z M30.3,26.7L26,22.4V34h-2V22.4l-4.3,4.3
	l-1.4-1.4l6.7-6.7l6.7,6.7L30.3,26.7z"/>
</svg>
